<svg width="32" height="32" viewBox="0 0 32 32" fill="none" xmlns="http://www.w3.org/2000/svg">
<path d="M16.6158 1.48354C16.4742 1.33443 16.2776 1.25 16.0719 1.25C15.8663 1.25 15.6697 1.33443 15.5281 1.48354C12.8504 4.30319 10.2918 7.22963 8.40109 10.2062C6.51246 13.1795 5.25 16.2649 5.25 19.3939C5.25 25.6287 10.0591 30.75 16.0719 30.75C22.0848 30.75 26.8939 25.6287 26.8939 19.3939C26.8939 16.2626 25.6044 13.15 23.7046 10.1658C21.8017 7.17667 19.2436 4.25067 16.6158 1.48354Z" stroke="black" stroke-width="1.5" stroke-linejoin="round"/>
<path d="M13.8561 26.9784C9.92803 25.7698 8.41724 20.9352 8.41724 18.5058C8.41724 15.0502 11.3582 9.84846 14.5611 6.53235" stroke="black" stroke-width="1.5" stroke-linecap="round" stroke-linejoin="round"/>
</svg>
